  <svg xmlns="http://www.w3.org/2000/svg" xmlns:xlink="http://www.w3.org/1999/xlink" version="1.1"
  width="24" height="24" viewBox="0 0 24 24" fill="none" id="_brushtool" color="#c3ced7"><path d="M20.919 1.654C21.113 1.47684 21.3532 1.35829 21.6118 1.31208C21.8704 1.26587 22.1369 1.29389 22.3802 1.3929C22.6235 1.49191 22.8338 1.65785 22.9867 1.87149C23.1396 2.08513 23.2288 2.33773 23.244 2.6V2.746C23.2283 3.01574 23.1349 3.27517 22.975 3.49299L15.905 12.45C15.7571 12.6741 15.5847 12.881 15.391 13.067C14.8476 13.5496 14.1367 13.8 13.4109 13.7644C12.685 13.7288 12.002 13.4101 11.5084 12.8766C11.0149 12.3432 10.7501 11.6375 10.771 10.911C10.7919 10.1846 11.0967 9.49526 11.62 8.991C11.794 8.829 11.998 8.704 12.182 8.554C15.0927 6.25266 18.0047 3.95266 20.918 1.654H20.919ZM20.409 3.832L13.08 9.615C12.82 9.836 12.492 9.99299 12.324 10.305C12.1459 10.6045 12.0871 10.9602 12.1593 11.3011C12.2315 11.642 12.4294 11.9433 12.7136 12.145C12.9978 12.3466 13.3475 12.4339 13.6932 12.3894C14.0388 12.345 14.3551 12.172 14.579 11.905C14.806 11.583 15.056 11.279 15.299 10.97C17.4697 8.22 19.6397 5.47 21.809 2.72C21.349 3.098 20.876 3.46 20.41 3.832H20.409Z" fill="#c3ced7" stroke="#c3ced7" strokeWidth="0.5"></path><path d="M5.8 13.731C6.27985 13.1484 6.93068 12.7313 7.6605 12.5388C8.39031 12.3462 9.16218 12.3879 9.867 12.658C10.6651 12.9733 11.3217 13.5674 11.715 14.33C12.1193 15.1138 12.2259 16.0176 12.015 16.874C11.8344 17.5801 11.4522 18.2184 10.915 18.711C10.1608 19.3756 9.27975 19.8804 8.325 20.195C7.29614 20.5431 6.21906 20.7277 5.133 20.742C3.8238 20.7662 2.51733 20.6135 1.249 20.288C1.16704 20.27 1.08377 20.2587 1 20.254L1 20.236C1.86489 19.7038 2.69951 19.1239 3.5 18.499C3.92116 18.1729 4.29978 17.7953 4.627 17.375C4.84191 17.0889 4.9753 16.7498 5.013 16.394C5.043 16.063 5.023 15.728 5.069 15.394C5.16293 14.7826 5.418 14.2072 5.808 13.727L5.8 13.731ZM7.569 14.049C7.31593 14.1788 7.09114 14.3575 6.90764 14.5749C6.72414 14.7922 6.58559 15.0437 6.5 15.315C6.43129 15.5997 6.40035 15.8922 6.408 16.185C6.39813 16.7453 6.25847 17.2957 6 17.793C5.6459 18.3882 5.18997 18.9166 4.653 19.354C6.33942 19.4369 8.01095 19.0029 9.444 18.11C9.80779 17.8735 10.1231 17.5697 10.373 17.215C10.5446 16.9507 10.6585 16.653 10.7071 16.3416C10.7557 16.0302 10.7379 15.7121 10.655 15.408C10.573 15.0939 10.4209 14.8024 10.2102 14.5555C9.99942 14.3085 9.73548 14.1125 9.43817 13.9821C9.14085 13.8517 8.81787 13.7904 8.49345 13.8027C8.16904 13.8149 7.85162 13.9005 7.565 14.053L7.569 14.049Z" fill="#c3ced7" stroke="#c3ced7" strokeWidth="0.5"></path></svg>