 <svg xmlns="http://www.w3.org/2000/svg" xmlns:xlink="http://www.w3.org/1999/xlink" version="1.1"  width="24" height="24" viewBox="0 0 24 24" fill="none" id="_erasertool" color="#c3ced7"><path d="M13.6894 1.61694H13.8714C14.4192 1.64143 14.9384 1.86843 15.3284 2.25394L21.6184 8.54294C21.8625 8.76131 22.0813 9.00653 22.2704 9.27394C22.5393 9.70198 22.6526 10.2096 22.5912 10.7113C22.5298 11.213 22.2975 11.6783 21.9334 12.0289C19.0821 14.8796 16.2307 17.7306 13.3794 20.5819C12.9149 21.0443 12.3633 21.41 11.7565 21.6577C11.1497 21.9055 10.4998 22.0304 9.84442 22.0253C9.18903 22.0202 8.54116 21.8851 7.93832 21.6279C7.33548 21.3707 6.78964 20.9965 6.3324 20.5269L1.8674 16.0639C1.74328 15.9468 1.62671 15.8219 1.5184 15.6899C1.18251 15.257 1.0197 14.7145 1.06166 14.1682C1.10362 13.6218 1.34734 13.1105 1.7454 12.7339L12.2144 2.26594C12.6072 1.87217 13.1337 1.64051 13.6894 1.61694V1.61694ZM13.1744 2.78494C13.005 2.86131 12.8542 2.97356 12.7324 3.11394L5.1324 10.7629C7.9044 13.5176 10.6774 16.2719 13.4514 19.0259C14.1654 18.3129 14.8814 17.6019 15.5914 16.8859L21.0994 11.3269C21.2284 11.2069 21.3292 11.0597 21.3944 10.8959C21.4712 10.6942 21.4877 10.4745 21.4419 10.2636C21.3961 10.0527 21.29 9.85962 21.1364 9.70794L14.3874 3.01694C14.2309 2.86255 14.0321 2.75801 13.8162 2.71654C13.6003 2.67507 13.377 2.69852 13.1744 2.78394V2.78494ZM2.4064 13.4389C2.30208 13.5408 2.21907 13.6624 2.16217 13.7967C2.10528 13.9309 2.07564 14.0752 2.07499 14.221C2.07434 14.3668 2.10268 14.5113 2.15838 14.646C2.21407 14.7808 2.296 14.9031 2.3994 15.0059C2.89407 15.5013 3.38907 15.9963 3.8844 16.4909C4.5374 17.1499 5.2024 17.7909 5.8644 18.4459C6.4304 19.0013 6.99707 19.5566 7.5644 20.1119C8.06216 20.5752 8.70162 20.8571 9.3794 20.9119C9.92087 20.9647 10.4674 20.9148 10.9904 20.7649C11.6247 20.593 12.2055 20.2643 12.6794 19.8089C9.90673 17.0549 7.1334 14.3016 4.3594 11.5489L2.4064 13.4389Z" fill="#c3ced7" stroke="#c3ced7" strokeWidth="0.7"></path></svg>